<svg id="Layer_1" data-name="Layer 1" xmlns="http://www.w3.org/2000/svg" viewBox="0 0 519.28 136.87"><defs><style>.cls-1{fill:#da2f88;}</style></defs><title>fotshork</title><path class="cls-1" d="M444.71,116.05c-4.42,0-8.08-.31-11.64.16-1.3.17-2.79,2-3.46,3.39-3.93,8.22-10.63,11.69-19.87,10.05-3.71-7.64,2.09-9.82,7.87-12l-.67-1.24c-2-.12-4-.29-6-.36-10.86-.41-19.11-7.77-20.87-18.65a20.61,20.61,0,0,1,13.55-22.93c13.52-4.72,26.21,3.82,26.78,18l0,1c.48,10.37-2,9.86,10.55,10,4.06.05,5.86-1.29,6.44-5.48,2.67-19.25,5.63-38.45,8.48-57.68.22-1.47.59-2.94.7-4.42.92-12,3.05-9.44,11.95-9.1a142.7,142.7,0,0,1,18.31,2.07,9.82,9.82,0,0,1,5.58,3.4c7,9,17.29,10.55,26.38,4a10.15,10.15,0,0,1,6.22-1.71c5.62.41,11.21,1.33,16.8,2.15,3.85.57,5.65,2.26,5,6.78-4.34,28.41-8.38,56.86-12.55,85.3-1.21,8.21-2.72,16.39-3.75,24.62-.49,3.89-2.33,5.26-6,4.81-11.71-1.44-23.42-2.84-35.12-4.37-14-1.84-28-3.86-42-5.7-6.29-.82-7.33-2.11-6.34-8.44C442.32,132.17,443.42,124.62,444.71,116.05Zm58.05-2.66c-2,7.76-5.39,14.62-12.21,19.34-5,3.46-8.67,3-11.77-2.12-1.77-2.92-3.41-6.37-3.64-9.69-1-14.74-1.55-29.52-2.09-44.29-.13-3.74-.13-7.15-5-7.61-5.12-.49-8.25,1.42-8.68,6.56-.7,8.28-1.58,16.7-.79,24.9,1.05,11,2.47,22.24,5.79,32.72,4.9,15.48,17.62,19.08,31.3,10.19a41.91,41.91,0,0,0,16.11-19.31c3.09-7.55,7.17-12.2,15.77-11.49.62,0,1.63-.09,1.87-.49,1.24-2.11,2.3-4.33,3.42-6.51-1.92-.77-3.8-2-5.77-2.19-2.18-.16-4.44.71-7.11,1.22.23-1.56.37-2.5.5-3.44,1.36-9.28.39-18.32-3.72-26.77-3.51-7.23-11.31-9.31-16.5-4.57C490.63,78.61,484.38,104.28,502.76,113.39Zm8.14-60.28a10.06,10.06,0,0,0-9.35-9.85c-5.1-.25-10,4.39-10.15,9.58s4.58,9.83,9.87,9.77A9.89,9.89,0,0,0,510.9,53.11ZM418.09,96.48c0-1.46,0-2.47,0-3.46-.27-5.56-3-8.27-7.95-8-4.6.23-7.77,3.87-7.61,8.76.19,6.11,4.38,9.55,10.9,9.8S417.69,99.21,418.09,96.48Z" transform="translate(-27.71 -21.43)"/><path class="cls-1" d="M133.14,103.66h5.66l133,0c8,0,10-1.91,10.09-10,.1-7.67,0-15.33.06-23,0-4.93,2.12-7.31,6.16-7.3s6.18,2.56,6.2,7.37c.07,10.64,0,21.28,0,32.07,8.13,3,12.48.12,12.61-8.77.11-7.67,0-15.33,0-23,0-5.13,2.33-7.88,6.4-7.66,4.71.26,6,3.26,6,7.51-.08,10.64,0,21.29,0,32,9.08,2.68,12.61.1,12.65-9.46,0-7.5,0-15,0-22.49.05-5,2.45-7.73,6.62-7.51,4.83.24,5.87,3.43,5.85,7.58-.07,10.63,0,21.26,0,32.5,7.35,0,15.29.26,23.21-.12,3.53-.16,4.06-3.44,4.07-6.44,0-8.67.13-17.33.05-26,0-4.2,1.08-7.29,5.91-7.51,4.16-.19,6.52,2.43,6.57,7.54.08,9.33.11,18.66,0,28-.14,10.47-5.6,16.07-16.14,16.13q-104.47.54-208.94.9c-7.67,0-15.34.11-23,0-2.82,0-4.4.76-5.76,3.46-3.37,6.69-12.87,11.43-20.17,10.52-.72-.09-1.94-.64-2-1.07-.24-2.31-.17-4.65-.23-7-.1-3.69,2.81-2.87,4.93-3.37,3.92-.94,6.8-3.24,7-7.43.43-9.8.55-19.62.75-29.43.08-4.17,0-8.34.11-12.5.1-3.27,1.77-5.28,5.16-5.61s6.13,1,6.57,4.55A116.11,116.11,0,0,1,133.12,81C133.2,88.27,133.14,95.57,133.14,103.66Z" transform="translate(-27.71 -21.43)"/><path class="cls-1" d="M104.22,73.32c0,8.49,0,17,0,25.49-.09,11.74-5.49,17.29-17.11,17.17-12.8-.13-25.64-.06-38.4-1S28.28,105.3,27.84,92.5c-.21-5.82-.11-11.66-.1-17.49,0-3.92,1.75-6.37,5.92-6.42s5.89,2.43,6,6.35c.17,6,.1,12,.65,17.94.54,5.74,3.49,9.3,9.06,9.61,11.43.66,22.93.87,34.38.49,6.19-.2,8.09-3.08,8.13-9.69C92,77.13,91.88,61,92,44.81c0-4.93,3.53-8.15,7.4-6.86s4.87,4.63,4.87,8.38Q104.2,59.83,104.22,73.32Z" transform="translate(-27.71 -21.43)"/><path class="cls-1" d="M73.66,70.84a37.62,37.62,0,0,0-5.73-2.44c-.3-.07-1.73,2-1.46,2.62.62,1.35,1.8,3.11,3,3.36,2.54.52,5.26.16,7.77.16,2.44,7,1.53,8.44-5.13,8.45-4.82,0-9.64.12-14.45-.09-1.22-.05-3.3-1.05-3.41-1.84-.29-2-.19-5.62.66-5.9,3.4-1.13,2.75-3.6,3.07-6,.94-7,8.84-11.28,15.13-8,1.74.91,4,3,4,4.6C77.09,67.54,74.81,69.28,73.66,70.84Z" transform="translate(-27.71 -21.43)"/><path class="cls-1" d="M387.46,38.38a7.37,7.37,0,1,1,0,14.71A7.41,7.41,0,0,1,380,45.94,7.25,7.25,0,0,1,387.46,38.38Z" transform="translate(-27.71 -21.43)"/><path class="cls-1" d="M303.6,38.3c4.22.08,7.78,3.64,7.63,7.63a7.75,7.75,0,0,1-8.11,7.14,7.39,7.39,0,1,1,.48-14.77Z" transform="translate(-27.71 -21.43)"/><path class="cls-1" d="M322.27,53.07A7.78,7.78,0,0,1,315,45.58c.05-3.95,3.8-7.35,8-7.24a7.17,7.17,0,0,1,7.29,7.73A7.37,7.37,0,0,1,322.27,53.07Z" transform="translate(-27.71 -21.43)"/><path class="cls-1" d="M320.5,28.85c-.06,4.43-3.11,7.34-7.6,7.23a6.92,6.92,0,0,1-7.12-7.21c0-4.6,2.75-7.42,7.35-7.44S320.56,24.32,320.5,28.85Z" transform="translate(-27.71 -21.43)"/><path class="cls-1" d="M375.64,45.67a7.4,7.4,0,0,1-14.8.33c-.12-4.49,2.8-7.59,7.22-7.67A7.05,7.05,0,0,1,375.64,45.67Z" transform="translate(-27.71 -21.43)"/><path class="cls-1" d="M499.23,92c1.42-3.59,2.55-7.41,4.4-10.83,1.65-3.05,4.09-3.07,6.2-.05,2.75,3.92,2.87,15.77.16,19.75-2.1,3.1-5.85,3.29-7.73,0C500.84,98.33,500.33,95.31,499.23,92Z" transform="translate(-27.71 -21.43)"/></svg>