<svg width="122" height="111" viewBox="0 0 122 111" fill="none" xmlns="http://www.w3.org/2000/svg">
<path fill-rule="evenodd" clip-rule="evenodd" d="M98.5642 72.2767C108.527 72.2767 116.605 64.9339 116.605 55.8738C116.605 46.816 108.527 39.4727 98.5642 39.4727H24.0928C14.128 39.4727 6.05029 46.816 6.05029 55.8738C6.05029 64.9339 14.128 72.2767 24.0928 72.2767H98.5642Z" fill="#252525" fill-opacity="0.7"/>
<path fill-rule="evenodd" clip-rule="evenodd" d="M98.2844 70.31C107.047 70.31 114.151 63.8524 114.151 55.8863C114.151 47.919 107.047 41.4609 98.2844 41.4609H24.3044C15.5411 41.4609 8.43652 47.919 8.43652 55.8863C8.43652 63.8524 15.5411 70.31 24.3044 70.31H98.2844Z" fill="white"/>
<path fill-rule="evenodd" clip-rule="evenodd" d="M98.3726 67.2669C105.3 67.2669 110.915 62.1624 110.915 55.8656C110.915 49.5688 105.3 44.4648 98.3726 44.4648H24.4259C17.4994 44.4648 11.8838 49.5682 11.8838 55.8656C11.8838 62.1624 17.4994 67.2669 24.4259 67.2669H98.3726Z" fill="white"/>
<path fill-rule="evenodd" clip-rule="evenodd" d="M24.1442 50.9926H24.5046C25.4991 50.9926 25.8074 51.3191 25.8074 52.2867V57.3215C25.8074 58.2879 25.4991 58.6156 24.5046 58.6156H24.1442V50.9926ZM18.9834 48.0778V50.447C19.5143 50.6501 19.5483 51.0389 19.5665 51.5073V58.0071C19.5489 58.4589 19.4973 58.8644 18.9834 59.0668V61.4366H25.4639C26.8529 61.4366 28.1556 61.3589 29.2018 60.4542C30.3158 59.5037 30.385 58.4904 30.385 57.1814V52.1775C30.385 50.8994 30.2649 49.6836 29.0646 48.8264C28.0191 48.0938 26.5786 48.0784 25.3268 48.0784H18.9834V48.0778ZM37.1574 55.0757H35.5804V54.7029C35.5804 54.3123 35.6483 53.7038 36.3686 53.7038C37.0889 53.7038 37.1574 54.3123 37.1574 54.7029V55.0757ZM31.533 57.851C31.533 59.0348 31.5853 60.1265 32.7163 60.8899C33.6077 61.4973 35.2715 61.7477 36.9171 61.6385C38.5803 61.5293 40.2436 61.0775 41.1343 60.3758V57.9128H37.0889V58.2713C37.0889 58.77 37.0366 59.347 36.334 59.347C35.6307 59.347 35.5621 58.7077 35.5798 58.2239V57.3209H41.1343V54.998C41.2035 52.5973 40.2253 51.3975 36.2478 51.4129C32.459 51.4284 31.4645 52.504 31.533 55.185V57.851ZM42.0609 61.4361V59.0662C42.6101 58.7546 42.5585 58.2559 42.5585 57.7572V51.7566C42.5585 51.2574 42.6101 50.7587 42.0609 50.447V48.0778H47.6337V50.447C47.0852 50.7587 47.1361 51.2574 47.1361 51.7566V58.599H47.5815C48.7478 58.599 48.7308 57.9597 48.7308 57.1179V54.9511H52.7599V61.4355L42.0609 61.4361ZM57.8521 55.1701C57.8521 54.624 57.7489 53.7044 58.6239 53.7044C59.4983 53.7044 59.3782 54.6394 59.3782 55.1701V58.0071C59.3782 58.5367 59.4291 59.3476 58.6069 59.3476C57.8011 59.3476 57.8521 58.5367 57.8521 58.0071V55.1701ZM63.4236 55.1381C63.4236 53.892 63.3374 52.7065 62.0353 51.9899C61.0923 51.4907 59.4455 51.4135 58.349 51.4135C57.1318 51.4135 55.8114 51.5067 54.8339 52.2084C53.8223 52.9249 53.8054 54.079 53.8054 55.1386V57.6955C53.8054 58.989 53.8054 60.1888 55.1251 60.9837C56.0687 61.5602 57.6464 61.6391 58.7604 61.6391C59.9946 61.6391 61.4352 61.5453 62.4127 60.7818C63.3896 60.0178 63.4236 58.7866 63.4236 57.696V55.1381ZM68.8417 52.2244C69.9387 51.553 70.8993 51.3826 71.7573 51.4135C72.5978 51.4444 73.3337 51.6943 73.7452 52.0677C74.4837 52.7065 74.5686 53.4242 74.5686 54.2654V57.9442C74.5686 58.4275 74.5183 58.973 75.0492 59.2384V61.4361H70.7464C70.5055 60.4381 70.5231 59.3945 70.5231 58.3811V55.5132C70.5231 55.4503 70.5747 54.9985 70.403 54.6394C70.1287 54.2654 69.6827 53.9852 69.0147 54.2654V57.9442C69.0147 58.4275 68.9631 58.973 69.511 59.2384V61.4361H64.4697V59.2384C65.0019 58.9576 64.9673 58.5052 64.9673 58.0071V55.03C64.9673 54.4999 64.9843 54.1568 64.4697 53.8131V51.6159H68.8423L68.8417 52.2244ZM81.736 58.6762C81.5146 58.7859 81.2673 58.8452 81.0151 58.8489C80.193 58.8489 80.193 57.9906 80.193 57.461V55.2948C80.193 54.7338 80.193 54.079 80.9988 54.079C81.2554 54.079 81.5297 54.1562 81.736 54.2808V58.6762ZM86.2797 51.6154H81.8392V52.1769C81.0661 51.6468 80.1238 51.4135 79.1632 51.4135C76.7464 51.4135 76.1456 52.7534 76.1456 54.8887V58.5836C76.1456 60.7338 77.3119 61.6385 79.3525 61.6385C80.1244 61.6385 81.0151 61.42 81.736 60.9214V61.5447C81.736 62.1051 81.8392 63.0722 80.9472 63.0722C80.6214 63.0722 80.4326 62.9166 80.3131 62.6987C80.2099 62.4803 80.193 62.2006 80.193 61.9816H76.4369V64.3349C78.0145 65.1298 79.3695 65.3791 81.1693 65.3791C82.4041 65.3791 83.9641 65.239 84.8907 64.4132C85.8331 63.5869 85.7827 62.0908 85.7827 60.9837V55.0294C85.7827 54.5302 85.7469 54.1093 86.2791 53.8125V51.6154H86.2797ZM91.9362 52.0528C92.763 51.6022 93.7162 51.3801 94.6795 51.4135C95.5211 51.4444 96.2571 51.6943 96.6698 52.0677C97.4058 52.7065 97.492 53.4242 97.492 54.2654V57.9442C97.492 58.4275 97.4404 58.973 97.9726 59.2384V61.4361H93.6698C93.4289 60.4381 93.4465 59.3945 93.4465 58.3811V55.5132C93.4465 55.4503 93.4981 54.9985 93.3276 54.6394C93.0521 54.2654 92.6055 53.9852 91.9368 54.2654V57.9442C91.9368 58.4275 91.8865 58.973 92.4344 59.2384V61.4361H87.3944V59.2384C87.9253 58.9576 87.892 58.5052 87.892 58.0071V51.5696C87.9077 51.0698 87.9423 50.5397 87.3774 50.2761V48.0778H91.9368L91.9362 52.0528ZM103.493 57.9442C103.493 58.4429 103.442 58.9416 104.007 59.2384V61.4361H98.9489V59.2384C99.481 58.9416 99.4464 58.5052 99.4464 58.0071V55.1072C99.4464 54.6085 99.498 54.1093 98.9489 53.8131V51.6159H103.493V57.9442ZM99.1212 49.4497C99.1212 48.3895 100.321 47.9531 101.317 47.9531C102.326 47.9531 103.493 48.4524 103.493 49.5126C103.493 50.5403 102.345 51.0241 101.35 51.0241C100.289 51.0235 99.1212 50.5563 99.1212 49.4497ZM32.0508 49.5778H40.7713V50.2635H32.0508V49.5778Z" fill="#252525" fill-opacity="0.7"/>
</svg>
