<svg width="97" height="104" viewBox="0 0 97 104" fill="none" xmlns="http://www.w3.org/2000/svg">
<path fill-rule="evenodd" clip-rule="evenodd" d="M15.3823 42.832C19.8641 42.832 23.6836 45.5187 25.0328 49.2284H14.1117L9.48319 59.7849C6.90053 58.0873 5.21094 55.3092 5.21094 52.1791C5.21044 47.0309 9.77971 42.832 15.3823 42.832Z" fill="#3D3B3B"/>
<path fill-rule="evenodd" clip-rule="evenodd" d="M25.4584 50.9341C25.5181 51.3416 25.5494 51.7571 25.5494 52.1786C25.5494 57.3267 20.9802 61.5256 15.3775 61.5256C14.6084 61.5256 13.8591 61.446 13.1382 61.2955L15.7815 54.7712C16.3398 53.3945 15.5646 52.0517 14.2054 50.9336L25.4584 50.9341Z" fill="#3D3B3B"/>
<path fill-rule="evenodd" clip-rule="evenodd" d="M47.5142 46.2695H37.4393C34.786 46.2695 31.4466 49.1723 30.8356 51.93L30.4137 53.8351C29.5341 57.8039 31.8307 60.3653 34.1551 60.3653H42.0638C43.323 60.3653 44.6912 58.7054 44.9937 57.3722L46.254 51.8203L39.3005 51.8752L38.3224 53.8351H41.4956C42.0185 53.8351 41.7563 54.9817 41.5852 55.5225L41.016 57.3179C40.8294 57.9082 40.3294 58.6253 39.7598 58.6253H35.9815C34.3934 58.6253 34.1313 55.4537 34.5462 53.7808L35.0188 51.8757C35.5084 49.9007 37.6652 48.066 39.5403 48.066H47.0963L47.5142 46.2695ZM92.6581 46.2695H84.8475C82.1947 46.2695 78.8548 49.1723 78.2438 51.93L77.8219 53.8351C76.9423 57.8039 79.2389 60.3653 81.5633 60.3653H89.472L89.8974 58.6371H83.3539V58.6226C81.8126 58.5753 81.5474 55.4988 81.9429 53.8276H90.9098L91.3054 52.1278H82.3633L82.4265 51.8752C82.9161 49.9002 85.0724 48.0655 86.948 48.0655H92.2402C92.379 47.4672 92.5193 46.8684 92.6581 46.2695ZM78.1553 46.2695H70.3446C67.6908 46.2695 64.3509 49.1723 63.741 51.93L63.3181 53.8351C62.4385 57.8039 64.736 60.3653 67.06 60.3653H74.9686L75.3935 58.6371H68.8501V58.6226C67.3097 58.5753 67.0445 55.4988 67.4391 53.8276H76.406L76.8015 52.1278H67.8605L67.9227 51.8752C68.4122 49.9002 70.5695 48.0655 72.4442 48.0655H77.7364C77.8762 47.4672 78.015 46.8684 78.1553 46.2695ZM49.554 46.2695L46.3306 60.3116L50.5113 60.3664L53.2312 48.0117H58.4204C59.119 48.0117 59.5011 49.2831 59.3777 50.0254C59.2369 50.8715 58.41 52.1751 57.1612 52.1751H53.3452L57.4632 60.3121H62.1479L58.8234 53.8899C60.9887 53.5518 63.1867 51.7827 63.3071 49.3169C63.3643 48.1257 62.2305 46.2706 60.322 46.2706H49.554V46.2695Z" fill="#3D3B3B"/>
</svg>
