<svg width="104" height="90" viewBox="0 0 104 90" fill="none" xmlns="http://www.w3.org/2000/svg">
<path fill-rule="evenodd" clip-rule="evenodd" d="M52.8536 52.0482C53.0594 52.222 53.2918 52.3707 53.5445 52.4902C54.4151 52.901 55.4144 52.9033 56.3717 52.68C56.7903 52.5789 57.1965 52.4433 57.5849 52.2752C58.0241 52.0874 58.4479 51.874 58.8533 51.6365C59.3043 51.3722 59.7374 51.0859 60.1504 50.7792C60.4557 51.1817 60.7977 51.566 61.0976 51.8538C61.3976 52.1416 61.6566 52.3328 61.8954 52.4755C62.3576 52.7523 62.7783 52.8594 63.2128 52.8649C63.4218 52.8662 63.6249 52.8406 63.8435 52.7862C64.2738 52.6874 64.82 52.4147 65.3412 52.0176L67.1218 50.6812C67.1509 50.6667 67.1777 50.649 67.2015 50.6286C67.2569 50.5888 67.3542 50.5156 67.4185 50.4685C67.4688 50.4286 67.5239 50.3935 67.5829 50.3637C67.6648 50.3377 67.693 50.3944 67.7531 50.4493C67.777 50.474 67.8062 50.5069 67.8477 50.5632C67.8892 50.6195 67.9424 50.6986 67.9929 50.7792L68.9401 52.1475C69.0098 52.2486 69.0928 52.3424 69.1938 52.428C69.4927 52.6864 69.9043 52.8374 70.2346 52.8319C70.4871 52.8314 70.7355 52.7769 70.9574 52.6732C71.1972 52.5693 71.4956 52.3506 71.7812 52.0501L73.0704 50.7137C73.1762 50.603 73.2842 50.4937 73.3613 50.4246C73.4942 50.307 73.54 50.2892 73.6128 50.2572C73.6887 50.2271 73.7737 50.2181 73.8558 50.2316C73.9379 50.245 74.013 50.2802 74.0707 50.3322C74.1011 50.356 74.1372 50.3862 74.2191 50.4827C74.3 50.5797 74.4271 50.7426 74.5473 50.9091L75.2674 51.8218C75.4179 52.0116 75.5891 52.1896 75.7381 52.3255C76.0497 52.6046 76.2688 52.7125 76.5316 52.8095C76.6688 52.8571 76.8172 52.8955 77.0065 52.9221C77.1953 52.9486 77.425 52.9637 77.6548 52.9628C77.9537 52.9673 78.2531 52.9564 78.4972 52.9358C78.7424 52.9152 78.9323 52.885 79.479 52.7487C80.0252 52.6128 80.9272 52.3717 81.8223 52.1155C82.2116 52.3424 82.6243 52.54 82.9732 52.6732C83.2943 52.7988 83.6351 52.8831 83.9847 52.9234C84.4231 52.9761 84.8654 53.0001 85.3079 52.9953C86.164 52.9908 87.0177 52.9181 87.8581 52.7779C88.6566 52.6416 89.439 52.4428 90.1955 52.1841C90.9543 51.9272 91.6891 51.6209 92.3936 51.2678C92.8787 51.6777 93.3929 52.0652 93.7594 52.3081C94.1269 52.551 94.347 52.6498 94.5603 52.7281C94.7736 52.8063 94.9789 52.8644 95.2544 52.9028C95.5299 52.9408 95.8745 52.9596 96.1787 52.9623C96.4615 52.9653 96.7443 52.9533 97.0254 52.9262C97.9934 52.8342 98.94 52.6185 99.834 52.2861C100.116 52.1795 100.361 52.0693 100.554 51.9691C100.748 51.8689 100.892 51.7783 100.997 51.7019C101.078 51.6446 101.152 51.5799 101.217 51.5089C101.4 51.3085 101.345 51.157 101.263 50.9832C101.211 50.9004 101.132 50.832 101.037 50.786C100.938 50.7397 100.829 50.7096 100.717 50.6973C100.62 50.6861 100.523 50.6806 100.426 50.6808C100.299 50.6799 100.135 50.6826 99.8649 50.6986C99.5936 50.7142 99.2166 50.743 98.9581 50.7595C98.6985 50.776 98.5581 50.781 98.4209 50.7796C97.82 50.7737 97.2319 50.6288 96.7185 50.3601C96.6133 50.305 96.5133 50.2427 96.4196 50.1739C96.0548 49.9012 95.9282 49.6135 96.1165 49.3751C96.1383 49.3472 96.1665 49.3156 96.2723 49.2379C96.3781 49.161 96.5622 49.0379 96.751 48.9217L98.8719 47.5209L97.9247 46.5103L94.9321 48.2053L93.644 46.4453H88.9457L91.3704 50.2585C90.8997 50.4685 90.4083 50.6479 89.9753 50.7705C89.1154 51.0106 88.4059 51.0669 87.6193 51.0729C87.4571 51.0733 87.2954 51.0651 87.1433 51.0509C86.9912 51.0367 86.8513 51.0161 86.6668 50.9713C86.45 50.9174 86.2367 50.8535 86.028 50.7796C86.5464 50.498 87.0521 50.1993 87.5438 49.8843C87.8959 49.6537 88.0235 49.5352 88.1256 49.4318C88.3394 49.2136 88.4383 49.0562 88.516 48.8664C88.6043 48.6536 88.6426 48.3846 88.6426 48.1074C88.6436 47.929 88.6176 47.7505 88.5676 47.584C88.4712 47.2564 88.2667 46.9598 87.9788 46.7299C87.8205 46.604 87.6426 46.4977 87.4502 46.4142C87.226 46.3164 86.9883 46.2436 86.7428 46.1973C86.4748 46.1461 86.1759 46.1177 85.8307 46.1196C85.4856 46.1214 85.0952 46.1534 84.7027 46.2193C84.3102 46.2852 83.9156 46.3849 83.5444 46.5121C83.1726 46.6397 82.8237 46.7948 82.5121 46.9659C82.2004 47.137 81.926 47.3242 81.6915 47.5172C80.6549 48.3906 80.3597 49.2854 80.4358 50.1817C80.4443 50.2636 80.4586 50.3436 80.4927 50.4649C80.5278 50.5865 80.5842 50.7494 80.6485 50.91C80.3922 50.9114 80.1353 50.9004 79.9476 50.8825C79.809 50.8712 79.6721 50.8477 79.5391 50.8125C79.245 50.7325 79.0344 50.6117 78.8078 50.388C78.7238 50.3038 78.6291 50.1995 78.4962 50.0124C78.3632 49.8253 78.1962 49.5535 78.034 49.2804L77.124 47.7483C77.0006 47.5401 76.8703 47.3342 76.7645 47.1883C76.6587 47.0423 76.5784 46.9559 76.506 46.8863C76.1157 46.5203 75.8184 46.4883 75.4578 46.4773C75.2886 46.4753 75.1196 46.4873 74.9531 46.513C74.8216 46.5331 74.694 46.5687 74.5739 46.6187C74.4446 46.674 74.3219 46.7398 74.2074 46.8154C74.0692 46.9037 73.9053 47.0204 73.498 47.4335C73.0916 47.8462 72.4428 48.5557 71.8205 49.2799L70.9106 47.5854C70.8127 47.4024 70.6936 47.2267 70.5659 47.084C70.4383 46.9412 70.3043 46.831 70.1618 46.7431C69.6475 46.4284 69.0077 46.3982 68.4519 46.6146C68.3542 46.652 68.2599 46.6954 68.1695 46.7445C68.069 46.798 67.9615 46.8635 67.8413 46.9476C67.7211 47.0318 67.5877 47.1361 67.4185 47.2898C67.2494 47.4436 67.0436 47.6471 66.7415 47.9967C66.4394 48.3462 66.0405 48.8421 65.7815 49.1363C65.5231 49.4314 65.4066 49.5252 65.3151 49.5915C65.0971 49.7502 64.9652 49.7969 64.8115 49.801C64.6774 49.8015 64.5477 49.7484 64.4291 49.6345C64.3836 49.59 64.3427 49.5423 64.3068 49.4918C64.26 49.43 64.2089 49.3513 64.1413 49.2136C64.0738 49.0759 63.9887 48.8773 63.8669 48.5493C63.7462 48.2213 63.5888 47.7643 63.4723 47.4738C63.3558 47.1832 63.2824 47.0593 63.2186 46.9609C63.1691 46.8821 63.1142 46.8059 63.0543 46.7326C63.0135 46.6819 62.9679 46.6342 62.9181 46.5899C62.5597 46.2797 62.2182 46.3021 61.8869 46.4407C61.8108 46.475 61.7311 46.5226 61.6321 46.5912C61.5332 46.6599 61.4162 46.7509 61.1865 47.0368C60.9567 47.3228 60.6153 47.8045 60.3398 48.1627C60.0653 48.521 59.8569 48.7566 59.6824 48.9322C59.5454 49.0718 59.3953 49.2014 59.2336 49.3197C58.74 49.6798 58.2715 49.828 57.8178 49.8806C57.6008 49.9067 57.2982 49.9067 57.0089 49.8788C56.8924 49.868 56.7771 49.849 56.6642 49.8221C56.3824 49.7575 56.1304 49.6202 55.942 49.4286C55.8456 49.3307 55.7577 49.2267 55.6793 49.1175C56.7573 47.9715 57.7609 46.7688 58.3895 45.9009C59.0182 45.033 59.2724 44.4996 59.4654 44.0151C59.6585 43.5306 59.7915 43.0964 59.8765 42.6733C59.9616 42.2496 59.9989 41.8379 59.9989 41.498C59.9999 41.158 59.9627 40.8904 59.8888 40.642C59.8159 40.3931 59.7058 40.1635 59.5649 39.959C59.424 39.7545 59.25 39.5751 59.0538 39.4287C58.8586 39.2828 58.6406 39.1698 58.4151 39.0957C58.1896 39.0215 57.9582 38.9863 57.7098 38.9822C57.4429 38.9805 57.1767 39.0073 56.9174 39.0618C56.6165 39.1236 56.324 39.2124 56.0447 39.3267C55.7394 39.4511 55.4171 39.6158 55.0788 39.8336C54.7406 40.0514 54.3848 40.3236 54.0194 40.6644C53.612 41.0478 53.2427 41.4599 52.9153 41.8964C52.5521 42.3786 52.1984 42.9336 51.9367 43.4753C51.6751 44.0169 51.5049 44.5467 51.3868 45.1918C51.2688 45.8368 51.2028 46.5981 51.2097 47.3576C51.2097 47.6883 51.2236 48.0186 51.2491 48.3183C51.2746 48.6175 51.3113 48.8856 51.3554 49.1285C51.3996 49.371 51.4501 49.5878 51.5123 49.8024C51.3379 49.9255 51.154 50.0383 50.9619 50.14C50.7901 50.2297 50.6407 50.291 50.5072 50.3358C50.3909 50.376 50.2705 50.4066 50.1476 50.4273C50.0543 50.4429 49.9597 50.4519 49.8647 50.4543C49.6658 50.4557 49.5323 50.4255 49.3738 50.3436C49.2641 50.2831 49.1691 50.2048 49.0941 50.113C49.0457 50.0568 48.9952 49.9886 48.942 49.8971C48.8888 49.8056 48.8308 49.6917 48.7845 49.5741L47.4587 46.2175L43.4045 47.0652L44.2384 49.7699C43.9927 49.8674 43.7433 49.9575 43.5805 50.0087C43.485 50.0422 43.3857 50.067 43.2843 50.0828C43.1539 50.1065 43.0185 50.1002 42.8918 50.0645C42.8014 50.0353 42.7322 49.9863 42.6599 49.8994C42.6307 49.8651 42.5977 49.8212 42.5301 49.6899C42.4626 49.5586 42.361 49.339 42.2679 49.118L41.4723 47.4234C41.4104 47.2937 41.3349 47.1691 41.2468 47.051C41.0803 46.8301 40.9325 46.7216 40.7719 46.6411C40.6844 46.5978 40.5902 46.5654 40.4921 46.545C40.3868 46.5226 40.2666 46.5103 40.1209 46.5116C39.9752 46.513 39.8034 46.5277 39.6284 46.5611C39.4535 46.5945 39.2753 46.6466 39.0652 46.729C38.8551 46.8113 38.6121 46.9252 38.2467 47.1462C37.7904 47.4272 37.3495 47.7265 36.9256 48.0429C36.6387 47.7223 36.3263 47.4191 35.9907 47.1357C35.4349 46.6823 35.0754 46.5354 34.6414 46.3877C34.1962 46.2449 33.691 46.185 33.1746 46.1855C32.5805 46.1864 31.9561 46.2468 31.3589 46.459C30.8495 46.6378 30.4061 46.9322 30.0761 47.3109C29.9621 47.4409 29.8594 47.5779 29.7687 47.7208C29.6586 47.8914 29.5384 48.1056 29.3938 48.4551C29.2491 48.8046 29.0805 49.2905 28.9571 49.5892C28.8337 49.888 28.7571 49.9987 28.6885 50.0833C28.3997 50.4379 28.1679 50.4447 27.9333 50.4548C27.6637 50.4562 27.3531 50.388 27.1132 50.1634C27.0521 50.1089 26.9877 50.0408 26.9127 49.9465C26.8377 49.8523 26.7521 49.7315 26.6298 49.5142C26.4752 49.2347 26.3325 48.9504 26.2022 48.6619L24.9518 45.8913C24.8487 45.663 24.7322 45.4384 24.6152 45.2618C24.4982 45.0852 24.3844 44.9552 24.2727 44.8514C23.8765 44.4955 23.5494 44.4351 23.1643 44.4246C23.0192 44.4235 22.8743 44.4339 22.7314 44.4557C22.4666 44.4996 22.2852 44.57 22.0704 44.6968C21.9411 44.7774 21.8196 44.8669 21.7071 44.9644C21.5651 45.0843 21.3949 45.2403 21.0051 45.7188C20.6147 46.1978 20.0042 46.9998 19.4207 47.8137L17.5641 42.8274C17.4955 42.6397 17.417 42.4547 17.329 42.273C17.268 42.1479 17.1958 42.027 17.1131 41.9115C17.0558 41.8303 16.9909 41.7532 16.919 41.681C16.5291 41.3072 16.1728 41.271 15.8133 41.2633C15.7124 41.2635 15.6116 41.2696 15.5117 41.2816C15.2751 41.3136 15.0905 41.3758 14.9007 41.5231C14.8338 41.5776 14.7723 41.6366 14.7166 41.6997C14.6496 41.7747 14.573 41.8685 14.4374 42.1133C14.3013 42.3581 14.1077 42.7538 13.9269 43.1536L11.8809 47.6833L9.30413 39.275C9.21159 38.973 9.09086 38.6766 8.96056 38.4341C8.83026 38.1916 8.69305 38.0013 8.54839 37.8449C8.40373 37.6884 8.25268 37.5658 8.08941 37.4665C7.92416 37.3649 7.7405 37.2874 7.54587 37.2373C7.19254 37.1514 6.82152 37.1335 6.45924 37.185C6.09696 37.2365 5.75233 37.356 5.4499 37.5351C5.19591 37.6854 4.96735 37.8652 4.77074 38.0695C4.54152 38.3028 4.30645 38.5997 4.04372 39.0302C3.51401 39.8798 2.92474 41.2633 2.67637 42.4601C2.55365 43.0108 2.48939 43.5701 2.48438 44.1308C2.48438 44.2141 2.49023 44.2978 2.4998 44.3674C2.53118 44.5389 2.55936 44.6766 2.73487 44.8194C2.91304 44.9429 3.09652 44.9566 3.32042 44.9388C3.49646 44.9269 3.72675 44.7905 3.83046 44.6483C3.86396 44.6076 3.89747 44.5604 3.93097 44.5032C4.04719 44.2936 4.12899 44.0711 4.17402 43.8422C4.22561 43.6066 4.28411 43.252 4.33996 42.9176C4.39527 42.5831 4.44845 42.2693 4.49419 42.0689C4.53939 41.8685 4.57716 41.7812 4.6096 41.7134C4.64204 41.6457 4.66863 41.5982 4.69522 41.5584C4.7399 41.4943 4.77979 41.4476 4.85265 41.3982C4.92367 41.3513 5.01096 41.3264 5.10048 41.3273C5.19302 41.3182 5.3063 41.3621 5.33502 41.4293C5.34619 41.4472 5.35896 41.4701 5.37598 41.5053C5.39299 41.5405 5.41374 41.5867 5.46958 41.7706C5.52595 41.955 5.6153 42.2766 5.70412 42.5991L7.90167 50.5838C7.99634 50.9274 8.12132 51.265 8.25109 51.5363C8.38086 51.8071 8.51488 52.0107 8.65103 52.175C8.78771 52.3388 8.92705 52.4632 9.07384 52.5629C9.50357 52.8521 10.0109 52.9198 10.5577 52.8255C10.83 52.7715 11.0656 52.6723 11.3166 52.5002C11.4437 52.4129 11.5751 52.304 11.7187 52.1599C11.8623 52.0158 12.0176 51.836 12.1931 51.5839C12.3686 51.3323 12.5648 51.0088 12.7292 50.7201C12.8918 50.4319 13.0471 50.1408 13.195 49.8468C13.3631 49.516 13.5673 49.1093 13.7631 48.7406C13.9588 48.3718 14.1465 48.042 14.3422 47.7158L14.4268 47.913C14.4571 47.9843 14.4901 48.0644 14.6762 48.5283C14.8624 48.9922 15.2011 49.839 15.4442 50.4196C15.6872 51.0006 15.8346 51.3144 15.9744 51.5647C16.1143 51.8154 16.2467 52.0025 16.3722 52.1535C16.7536 52.6064 17.0929 52.7761 17.4391 52.8562C17.77 52.9272 18.1185 52.9068 18.4352 52.7981C18.6565 52.7212 18.8628 52.611 19.0883 52.4321C19.2096 52.3355 19.3399 52.2148 19.4963 52.0492C19.6526 51.8835 19.835 51.6722 20.1547 51.1667C20.4738 50.6616 20.9301 49.8623 21.3513 49.0517L22.4878 51.3007C22.6224 51.5674 22.7984 51.82 22.9931 52.0281C23.1744 52.2238 23.3899 52.3942 23.6318 52.5332C23.8632 52.6654 24.1121 52.7642 24.3854 52.8306C24.6679 52.8987 24.9601 52.9323 25.2534 52.9303C25.6747 52.9164 26.0921 52.8556 26.4952 52.7496C26.9801 52.6213 27.4505 52.4558 27.9009 52.255C28.4037 52.0335 28.8865 51.7799 29.3454 51.4965C29.6198 51.7437 29.9112 51.9766 30.2181 52.1937C30.7388 52.5506 31.0579 52.6691 31.4573 52.7885C31.6567 52.8438 31.8689 52.8873 32.1253 52.9157C32.3816 52.944 32.6821 52.9582 32.914 52.9619C33.1464 52.9655 33.3102 52.9587 33.4671 52.9472C34.3579 52.869 35.236 52.691 36.0598 51.8707C36.172 51.7586 36.289 51.631 36.4337 51.4128C36.5783 51.1941 36.7507 50.8857 36.8985 50.6154C37.0458 50.345 37.1676 50.1135 37.257 49.9758C37.3463 49.8381 37.4032 49.7928 37.4532 49.7594C37.6356 49.6336 37.8026 49.6546 37.9659 49.731C38.009 49.7525 38.0542 49.7809 38.1068 49.8234C38.1595 49.866 38.2191 49.9227 38.301 50.0298C38.3829 50.1368 38.4871 50.2951 38.6552 50.593C38.8232 50.8908 39.0562 51.3291 39.2285 51.6132C39.4013 51.8977 39.5136 52.0281 39.6135 52.137C39.7135 52.2459 39.8018 52.3328 39.8869 52.4065C40.3932 52.8296 40.841 52.923 41.3191 52.9303C41.8707 52.9321 42.3626 52.853 42.8593 52.6709C43.113 52.5789 43.3827 52.4591 43.7778 52.2084C44.1735 51.9577 44.6942 51.577 45.1835 51.1703C45.5071 51.5126 45.8478 51.8428 46.2046 52.1599C46.4806 52.4005 46.6492 52.514 46.7971 52.6009C47.1103 52.7821 47.3215 52.8511 47.5837 52.8964C47.7214 52.9193 47.8735 52.9307 48.0251 52.9303C48.3798 52.9189 48.7319 52.8672 49.1632 52.7528C50.0221 52.5286 51.1906 52.0382 52.2495 51.3986C52.4208 51.6346 52.6236 51.8526 52.8536 52.0482ZM56.9429 40.8135C57.0355 40.8222 57.1519 40.8973 57.1956 40.9677C57.2466 41.0414 57.2684 41.1022 57.2934 41.1933C57.3078 41.25 57.3216 41.32 57.3317 41.4211C57.3423 41.5218 57.3482 41.6535 57.3482 41.7848C57.3348 42.1327 57.2932 42.4795 57.2237 42.8224C57.1484 43.1996 57.0524 43.5735 56.936 43.9428C56.8348 44.2657 56.7071 44.5821 56.5536 44.8894C56.2109 45.5762 55.8115 46.2411 55.3586 46.879C55.2542 47.0272 55.1396 47.1698 55.0156 47.3063C54.9613 47.3672 54.902 47.4245 54.8379 47.4779C54.7183 47.568 54.647 47.6151 54.5709 47.5653C54.5284 47.52 54.5209 47.4921 54.5013 47.4362C54.4867 47.3896 54.4747 47.3424 54.4651 47.2949C54.4435 47.1845 54.4289 47.0731 54.4215 46.9614C54.4055 46.7243 54.3954 46.4869 54.3912 46.2495C54.4066 45.8492 54.4555 45.4507 54.5566 44.9607C54.6582 44.4712 54.8119 43.8907 54.9687 43.4103C55.1246 42.9299 55.2836 42.5497 55.4256 42.2528C55.5692 41.9559 55.6958 41.7418 55.8059 41.5767C55.917 41.412 56.0127 41.2967 56.0989 41.2052C56.3712 40.9188 56.6201 40.8071 56.8541 40.8062C56.885 40.8071 56.9153 40.8094 56.9429 40.8135ZM83.8454 48.7996C83.8811 48.6689 83.9352 48.5424 84.0065 48.4231C84.0783 48.3014 84.1698 48.1856 84.2746 48.0836C84.6713 47.7066 85.1463 47.5579 85.5989 47.6444C85.6797 47.6604 85.7547 47.6842 85.8212 47.7139C85.8887 47.7432 85.9477 47.7794 85.9977 47.8187C86.3094 48.085 86.2408 48.3526 86.1243 48.6244C86.0903 48.693 86.0456 48.7657 85.9839 48.8462C85.9217 48.9272 85.8424 49.0155 85.7292 49.1226C85.5696 49.2705 85.3969 49.4075 85.2127 49.5325C84.9553 49.7114 84.5873 49.9438 84.2092 50.1629C84.0108 49.93 83.8746 49.7063 83.8289 49.5032C83.7773 49.2914 83.78 49.0457 83.8454 48.7996ZM34.5079 48.224C34.8055 48.3056 35.0533 48.4853 35.1971 48.7238C35.3409 48.9623 35.3688 49.2401 35.2748 49.4963C35.2036 49.6992 35.0574 49.8765 34.8584 50.0014C34.7053 50.097 34.528 50.1599 34.3411 50.1848C34.1542 50.2097 33.963 50.1959 33.7835 50.1446C33.6597 50.1096 33.5432 50.0579 33.4384 49.9913C33.2293 49.8598 33.0744 49.6744 32.9959 49.462C32.9185 49.2611 32.9201 49.0439 33.0003 48.8439C33.0806 48.6438 33.235 48.472 33.44 48.3549C33.5957 48.2666 33.7723 48.2091 33.9569 48.1865C34.1415 48.1639 34.3297 48.1767 34.5079 48.224ZM62.3102 41.788C61.8549 41.7886 61.4114 41.9123 61.0423 42.1417C60.8549 42.2576 60.6901 42.3984 60.5541 42.5589C60.1488 43.048 60.0536 43.6143 60.2552 44.1523C60.3238 44.3303 60.4286 44.506 60.5658 44.6666C60.703 44.8267 60.8732 44.9713 61.0625 45.0879C61.6534 45.4434 62.3092 45.5239 62.9601 45.3524C63.3928 45.2344 63.7698 44.9995 64.035 44.6826C64.4402 44.1894 64.5344 43.6166 64.3349 43.0571C64.2668 42.8737 64.1656 42.7006 64.035 42.5443C63.8383 42.3092 63.5791 42.1179 63.2791 41.9864C62.9791 41.8548 62.6469 41.7868 62.3102 41.788ZM100.961 47.633C101.113 47.5909 101.256 47.5277 101.385 47.4463C101.512 47.3653 101.624 47.2665 101.714 47.1567C101.988 46.815 102.051 46.4147 101.917 46.0226C101.824 45.7644 101.637 45.5387 101.384 45.3789C101.191 45.2571 100.967 45.1767 100.731 45.1443C100.495 45.112 100.253 45.1285 100.026 45.1927C99.8734 45.2348 99.7287 45.2979 99.6 45.3789C99.4724 45.4599 99.3601 45.5582 99.2697 45.6676C98.9916 46.0121 98.9331 46.4069 99.066 46.8008C99.1587 47.0599 99.346 47.2864 99.6 47.4468C99.7934 47.5684 100.018 47.6488 100.254 47.6812C100.491 47.7135 100.733 47.697 100.961 47.633ZM99.3522 46.0734C99.3905 45.9659 99.4479 45.8643 99.5213 45.7737C99.5952 45.6836 99.6856 45.604 99.7883 45.5395C99.9927 45.411 100.239 45.3417 100.492 45.3417C100.746 45.3417 100.992 45.411 101.197 45.5395C101.297 45.604 101.388 45.6831 101.461 45.7742C101.691 46.0638 101.744 46.405 101.631 46.7491C101.558 46.9636 101.407 47.152 101.199 47.2857C100.877 47.4866 100.499 47.5319 100.121 47.433C99.8777 47.3651 99.6669 47.231 99.5202 47.051C99.2937 46.7656 99.2368 46.4165 99.3522 46.0734ZM100.48 46.5112L100.928 47.1531H101.217L100.733 46.5011C100.857 46.4874 101.03 46.4458 101.118 46.3053C101.161 46.2331 101.182 46.1526 101.178 46.0716C101.175 45.9906 101.148 45.9117 101.099 45.8423C100.92 45.663 100.779 45.684 100.574 45.6721H99.9271V47.1526H100.184V46.5107L100.48 46.5112ZM100.184 45.8629H100.534C100.655 45.8661 100.834 45.8675 100.892 46.0079C100.913 46.0775 100.925 46.2097 100.795 46.2788C100.752 46.2993 100.706 46.3114 100.657 46.314C100.531 46.3264 100.341 46.3195 100.183 46.3213V45.8629H100.184Z" fill="#3D3B3B"/>
</svg>
