<svg width="90" height="36" viewBox="0 0 90 36" fill="none" xmlns="http://www.w3.org/2000/svg">
<g clip-path="url(#clip0_902_23016)">
<path d="M69.3735 0.888712V7.54272H75.8535C75.8535 7.54272 75.8144 0.888712 75.8535 0.888712H79.0348V17.5239H75.8535V10.2044H69.3735V17.5237H66.1924V0.888871H69.3735M39.0216 0.888712V3.71659H34.1105V17.5237H30.89V3.71659H26.0193V0.888712H39.0216ZM51.4602 17.5239H47.8776L46.831 13.9195H40.8329L39.7864 17.5237H36.2439L41.8796 0.888712H45.7843L51.4602 17.5239ZM43.8521 3.71659L41.5979 11.2579H46.0667L43.8521 3.71659ZM81.573 17.5239V0.888553H84.7933V17.5239H81.573ZM9.47464 0.888712V7.54272H15.9155V0.888712H19.1358V17.5239H15.9155V10.2044H9.47464V17.5237H6.25422C6.25422 17.5237 6.29456 0.888712 6.25422 0.888712H9.47464ZM21.6718 17.5239V0.888553H24.852V17.5239H21.6718ZM51.3395 12.9216C51.0578 11.757 50.8968 10.5927 50.8968 9.37268C50.8968 7.59829 51.1383 5.93486 51.7421 4.49306C52.3459 3.05157 53.3126 1.94252 54.48 1.33243C55.5663 0.778061 56.7717 0.445312 58.0241 0.445312C59.4721 0.445312 60.8418 0.888871 62.0495 1.60977C63.2125 2.33067 64.1014 3.77232 64.3419 5.4913C64.381 5.82389 64.4202 6.15648 64.4648 6.5448H61.1214C61.0823 6.10124 61.0432 5.65752 60.9202 5.26953C60.6798 4.32684 60.1151 3.60594 59.433 3.3286C58.9858 3.16223 58.5049 3.05142 58.0241 3.05142C57.4594 3.05142 56.9339 3.16223 56.453 3.43957C55.6065 3.82756 54.9624 4.71484 54.6806 5.8793C54.3989 6.93295 54.2378 8.15265 54.2378 9.37268C54.2378 10.3708 54.3586 11.3688 54.5598 12.2561C54.8014 13.476 55.4455 14.4741 56.2909 14.9178C56.8555 15.195 57.4203 15.3614 58.0241 15.3614C58.544 15.3614 59.0304 15.2505 59.5112 15.0286C60.115 14.7514 60.6406 14.1413 60.9202 13.3096C61.0823 12.7552 61.1606 12.1452 61.1606 11.5352H64.5432C64.504 12.0343 64.4648 12.5889 64.381 13.0878C64.1014 14.7516 63.2572 16.1375 62.1279 16.7476C60.8811 17.5239 59.4722 17.912 58.0242 17.912C56.8948 17.912 55.808 17.6903 54.7613 17.2469C53.2315 16.5811 51.8629 15.0286 51.3395 12.9216ZM3.39639 22.1824L0.538086 22.5143V23.1235H0.659098C1.78589 23.2906 1.78589 23.2906 1.78589 24.4551V32.6617H3.51694V22.1824H3.39639ZM9.4343 25.2866C8.38772 25.2866 7.74359 26.2855 7.46192 26.8948V25.2314L7.34114 25.287L5.04664 25.7859V26.3397H5.12708C5.85166 26.3952 6.01278 26.5622 6.01278 27.5057V32.662H7.46192V28.8907C7.46192 27.8937 8.14627 26.5621 8.87084 26.5621C9.5552 26.5621 9.59542 27.3939 9.59542 28.6694V32.6614H11.0446V27.5052C11.0446 26.0631 10.481 25.2866 9.4343 25.2866ZM15.0701 28.1701C14.5064 27.7819 14.0234 27.45 14.0234 26.8948C14.0234 26.2855 14.5468 26.2296 14.7883 26.2296C15.3921 26.2296 15.9155 26.6738 16.157 26.8386L16.3582 27.062V25.5632L16.1972 25.5092C15.9156 25.4537 15.4325 25.2866 14.8689 25.2866C13.5405 25.2866 12.6952 26.0631 12.6952 27.45C12.6952 28.6138 13.5405 29.2233 14.3054 29.7224C14.869 30.1104 15.4326 30.4428 15.4326 31.0535C15.4326 31.6087 15.0702 31.8854 14.4664 31.8854C13.7821 31.8854 13.2185 31.4417 12.8965 31.1648L12.7355 30.9978V32.5504H12.8159C13.1381 32.6616 13.6613 32.8284 14.4262 32.8284C15.8754 32.8284 16.761 31.9967 16.761 30.6097C16.7607 29.279 15.8751 28.6695 15.0701 28.1701ZM21.4303 25.2866C20.9069 25.2866 20.3837 25.6194 19.9007 26.2855V25.2314L19.7799 25.2866L17.4854 25.7858V26.3395H17.6062C18.2905 26.3951 18.4515 26.5621 18.4515 27.5055V35.712H19.9007V31.9968C20.1422 32.4406 20.585 32.8287 21.39 32.8287C22.8795 32.8287 23.6845 31.4974 23.6845 28.9464C23.6845 26.6175 22.8794 25.2866 21.4303 25.2866ZM21.0277 26.3952C21.9938 26.3952 22.1146 27.8377 22.1146 28.9464C22.1146 30.8311 21.7523 31.7744 21.0277 31.7744C20.1019 31.7744 19.9007 30.5546 19.9007 29.5573V28.891C19.9007 28.1702 20.0213 26.3952 21.0277 26.3952ZM24.6909 25.7858V26.3395H24.7713C25.4959 26.3951 25.657 26.5621 25.657 27.5055V32.6619H27.066V25.2314L26.9855 25.287L24.6909 25.7858ZM26.3816 24.3995C26.8646 24.3995 27.2673 23.8998 27.2673 23.2905C27.2673 22.7353 26.8647 22.2379 26.3816 22.2379C25.8985 22.2379 25.4959 22.7353 25.4959 23.2905C25.4959 23.8998 25.8986 24.3995 26.3816 24.3995ZM33.1444 26.8948V25.3978L33.0237 25.3422C32.8223 25.2866 32.5807 25.2866 32.3393 25.2866C31.5343 25.2866 31.0915 26.1182 30.8902 26.7289V25.2311L30.7695 25.2866L28.475 25.7856V26.3393H28.5554C29.28 26.3949 29.441 26.5619 29.441 27.5054V32.6617H30.8902V28.9462C30.8902 28.3369 31.0512 26.8947 32.3796 26.8947C32.5406 26.8947 32.742 26.9502 32.903 27.0055L33.1445 27.1171L33.1444 26.8948ZM38.8203 28.2814C38.8203 26.2855 38.0153 25.2866 36.4454 25.2866C34.6338 25.2866 33.7483 26.4511 33.7483 28.8349C33.7483 31.3306 34.9157 32.8286 36.8882 32.8286C37.4765 32.8274 38.061 32.6964 38.6192 32.4406L38.6997 32.385V31.442L38.5789 31.4976C38.3373 31.6089 37.9348 31.7743 37.4518 31.7743C35.9222 31.7743 35.3183 30.001 35.3183 28.3914H38.8205V28.2815L38.8203 28.2814ZM36.4051 26.0633C37.17 26.0633 37.3712 26.8388 37.3712 27.5597H35.3183C35.3585 27.0056 35.5597 26.0633 36.4051 26.0633ZM51.9841 25.2866C50.8966 25.2866 50.2928 26.1741 50.0111 26.8385V21.9034H49.8903L47.5958 22.347V22.9023H47.6768C48.4008 22.9023 48.5625 23.1233 48.5625 24.1222V32.6616H50.0111V29.0018C50.0111 27.6148 50.7356 26.5621 51.3394 26.5621C52.1444 26.5621 52.1444 27.3939 52.1444 28.1144V32.6616H53.5942V27.8937C53.5943 27.1174 53.5943 25.287 51.9841 25.287M60.0759 28.2814C60.0759 26.2855 59.2708 25.2866 57.6997 25.2866C55.8882 25.2866 55.0027 26.4511 55.0027 28.8349C55.0027 31.3306 56.1701 32.8286 58.1024 32.8286C58.9858 32.8286 59.6343 32.5504 59.8747 32.4406L59.953 32.385V31.442L59.8356 31.4976C59.5896 31.6089 59.1926 31.7743 58.7062 31.7743C57.1743 31.7743 56.5705 30.001 56.5705 28.3914H60.076V28.2815L60.0759 28.2814ZM57.6214 26.0633C58.4265 26.0633 58.6278 26.8388 58.6278 27.5597H56.5702C56.5704 27.0056 56.8164 26.0633 57.6214 26.0633ZM43.8924 23.1798V25.454H42.9268V26.3395H43.8924V30.7768C43.8924 32.7173 44.7779 32.8286 45.8648 32.8286C46.1465 32.8286 46.4284 32.773 46.7101 32.7174H46.7912V31.83H46.6699C46.5491 31.8856 46.3881 31.8856 46.2271 31.8856C45.3817 31.8856 45.3414 31.5531 45.3414 30.5546V26.3397H46.9521V25.4538H45.3414V23.1797H43.8924M72.2697 22.3472H70.8218V30.1663C70.5422 29.5571 67.0813 22.3472 67.0813 22.3472H63.7379V22.9025L64.0175 23.0141C64.9066 23.1797 64.9456 23.2352 64.9456 24.3997V32.6617H66.5167V24.4551C66.7963 25.066 70.4639 32.6617 70.4639 32.6617H72.3536V22.3473L72.2697 22.3472ZM78.8334 28.2814C78.8334 26.2855 78.0284 25.2866 76.4181 25.2866C74.6458 25.2866 73.7233 26.4511 73.7233 28.8349C73.7233 31.3306 74.8919 32.8286 76.8598 32.8286C77.7096 32.8286 78.3918 32.5504 78.6322 32.4406L78.7161 32.385V31.442L78.5931 31.4976C78.3527 31.6089 77.9054 31.7743 77.4246 31.7743C75.8983 31.7743 75.3335 30.001 75.2889 28.447H78.8335L78.8334 28.2814ZM76.379 26.0633C77.1449 26.0633 77.3462 26.8388 77.3853 27.5597H75.2888C75.3335 27.0056 75.5739 26.0633 76.379 26.0633ZM86.7613 23.1798V25.454H85.7997V26.3395H86.7613V30.7768C86.7613 32.7173 87.6503 32.8286 88.735 32.8286C89.0202 32.8286 89.2996 32.773 89.5792 32.7174H89.7021V31.83H89.54C89.4225 31.8856 89.2996 31.8856 89.1375 31.8856C88.2541 31.8856 88.215 31.5531 88.215 30.5546V26.3397H89.8252V25.4538H88.215V23.1797H86.7613M83.8652 27.7821L85.3524 25.454H83.8261L82.4171 27.6713L81.1704 25.454H78.9564V26.0069H79.0738C79.8007 26.1185 80.0019 26.2857 80.4437 27.1174L81.3718 28.781L79.8791 31.1096H81.411L82.0538 30.055L83.5018 32.6617H85.1959L82.4955 27.7821H83.8652Z" fill="#3D3B3B"/>
<path d="M86.7572 23.1818H85.231L87.0816 20.2422H88.6135L86.7572 23.1818Z" fill="#D40000"/>
</g>
<defs>
<clipPath id="clip0_902_23016">
<rect width="89.2871" height="35.2739" fill="white" transform="translate(0.534668 0.4375)"/>
</clipPath>
</defs>
</svg>
