<svg width="20" height="23" viewBox="0 0 20 23" fill="none" xmlns="http://www.w3.org/2000/svg">
<path d="M10.75 0.53125L0.25 12.3438L9.25 22.4688L19.75 10.6562V0.53125H10.75ZM7.00224 9.43414C7.44193 8.93955 8.15471 8.93955 8.59435 9.43414C9.03398 9.92878 9.03398 10.7307 8.59435 11.2253C8.15471 11.7198 7.44193 11.7198 7.00224 11.2253C6.56261 10.7307 6.56261 9.92878 7.00224 9.43414ZM8.2301 14.6842C8.08362 14.849 7.89172 14.9314 7.69983 14.9314C7.50793 14.9314 7.31604 14.849 7.16956 14.6842C6.87659 14.3547 6.87659 13.8207 7.16956 13.4911L10.6083 9.62257C10.9012 9.29298 11.3759 9.29298 11.6688 9.62257C11.9618 9.95216 11.9618 10.4861 11.6688 10.8157L8.2301 14.6842ZM11.8363 14.8724C11.3966 15.3671 10.6839 15.3671 10.2442 14.8724C9.80453 14.3778 9.80453 13.576 10.2442 13.0814C10.6839 12.5867 11.3966 12.5867 11.8363 13.0814C12.2759 13.576 12.2759 14.3778 11.8363 14.8724ZM15.25 7.84372C14.6977 8.46504 13.8023 8.46504 13.25 7.84372C12.6977 7.22244 12.6977 6.21508 13.25 5.59375C13.8023 4.97242 14.6977 4.97242 15.25 5.59375C15.8023 6.21508 15.8023 7.22244 15.25 7.84372Z" fill="#EB008C"/>
</svg>
