<svg width="77" height="66" viewBox="0 0 77 66" fill="none" xmlns="http://www.w3.org/2000/svg">
<g clip-path="url(#clip0_902_23028)">
<rect width="76.0594" height="65.0363" transform="translate(0.515137 0.0078125)" fill="#252525"/>
<path d="M0.516602 0.0078125H76.576V65.0441H0.516602V0.0078125Z" fill="white"/>
<mask id="mask0_902_23028" style="mask-type:luminance" maskUnits="userSpaceOnUse" x="0" y="0" width="77" height="66">
<path d="M0.526367 0.0078125H76.5858V65.0441H0.526367V0.0078125Z" fill="white"/>
</mask>
<g mask="url(#mask0_902_23028)">
<path d="M52.0326 49.0666V25.3592C52.0326 19.9727 46.9272 15.6055 40.6285 15.6055H8.57037C8.32308 15.6055 8.12305 15.7757 8.12305 15.9849V49.0664C8.12305 49.2756 8.32308 49.4451 8.57037 49.4451H17.1333C17.192 49.4452 17.2501 49.4354 17.3043 49.4164C17.3585 49.3973 17.4078 49.3692 17.4494 49.3339C17.4909 49.2985 17.5239 49.2564 17.5464 49.2101C17.5689 49.1638 17.5806 49.1142 17.5807 49.064V23.099C17.5807 23.0489 17.5923 22.9992 17.6149 22.9528C17.6374 22.9065 17.6704 22.8644 17.7119 22.8289C17.7535 22.7935 17.8028 22.7654 17.857 22.7463C17.9113 22.7271 17.9694 22.7173 18.0281 22.7174H36.4421C39.8996 22.7174 42.7041 25.1139 42.7041 28.0711V49.0632C42.7042 49.1642 42.7511 49.2611 42.8347 49.3326C42.9183 49.4041 43.0316 49.4442 43.1498 49.4443H51.5871C51.8324 49.4443 52.0329 49.2743 52.0329 49.0654" fill="#252525"/>
</g>
<mask id="mask1_902_23028" style="mask-type:luminance" maskUnits="userSpaceOnUse" x="0" y="0" width="77" height="66">
<path d="M0.533203 0.0195312H76.5926V65.0558H0.533203V0.0195312Z" fill="white"/>
</mask>
<g mask="url(#mask1_902_23028)">
<path d="M34.7486 49.0678C34.7488 49.1179 34.7373 49.1675 34.715 49.2138C34.6926 49.26 34.6598 49.3021 34.6184 49.3375C34.577 49.3729 34.5278 49.401 34.4736 49.4201C34.4195 49.4392 34.3615 49.4489 34.3029 49.4488H25.7419C25.4946 49.4488 25.2944 49.2785 25.2944 49.0678V29.1707C25.2945 29.1206 25.3061 29.0709 25.3286 29.0245C25.3512 28.9782 25.3841 28.9361 25.4257 28.9007C25.4672 28.8652 25.5165 28.8371 25.5708 28.818C25.625 28.7988 25.6832 28.789 25.7419 28.7891H34.3029C34.3615 28.789 34.4195 28.7989 34.4737 28.818C34.5278 28.8372 34.577 28.8653 34.6184 28.9008C34.6598 28.9363 34.6926 28.9784 34.715 29.0247C34.7373 29.071 34.7488 29.1206 34.7486 29.1707V49.0686V49.0678Z" fill="#252525"/>
</g>
<mask id="mask2_902_23028" style="mask-type:luminance" maskUnits="userSpaceOnUse" x="0" y="0" width="77" height="66">
<path d="M0.533203 0.0195312H76.5926V65.0558H0.533203V0.0195312Z" fill="white"/>
</mask>
<g mask="url(#mask2_902_23028)">
<path d="M68.9834 49.0755C68.9834 49.2862 68.7834 49.4566 68.5359 49.4566H59.9768C59.7293 49.4566 59.5273 49.2862 59.5273 49.0755V15.9997C59.5273 15.7882 59.7293 15.6172 59.9768 15.6172H68.5359C68.5947 15.6171 68.6529 15.627 68.7072 15.6462C68.7615 15.6654 68.8109 15.6936 68.8524 15.7291C68.894 15.7646 68.927 15.8068 68.9494 15.8532C68.9719 15.8997 68.9835 15.9494 68.9834 15.9997V49.0755Z" fill="#252525"/>
</g>
</g>
<defs>
<clipPath id="clip0_902_23028">
<rect width="76.0594" height="65.0363" fill="white" transform="translate(0.515137 0.0078125)"/>
</clipPath>
</defs>
</svg>
