<svg width="380" height="346" viewBox="0 0 380 346" fill="none" xmlns="http://www.w3.org/2000/svg">
<path d="M362.419 97.3933C343.823 53.9087 301.354 -6.09818 187.608 2.89688C73.8612 11.8919 17.94 90.0481 2.72169 188.439C-7.1569 252.307 37.5873 308.701 110.224 322.29C182.86 335.88 281.62 297.737 340.337 231.244C365.892 202.305 381.013 140.878 362.419 97.3933Z" fill="#ECF0F8"/>
<path d="M86.8033 30.5787H146.227C146.227 30.5787 146.488 19.5838 140.089 19.5838C136.563 19.5838 133.82 21.8744 133.82 21.8744C133.82 21.8744 131.991 14.3918 125.2 13.1701C118.409 11.9485 116.581 15.1553 116.581 15.1553C116.581 15.1553 111.748 1.25901 102.345 2.02254C88.5012 3.09149 88.3705 20.1947 88.3705 20.1947C88.3705 20.1947 81.3181 21.4163 82.4935 30.7314H86.8033V30.5787Z" stroke="#CED9ED" stroke-width="0.794583" stroke-miterlimit="10"/>
<path d="M174.1 18.5306C177.441 16.7297 179.365 13.283 178.4 10.8322C177.433 8.38147 173.941 7.85466 170.601 9.65558C167.26 11.4565 165.336 14.9031 166.303 17.3539C167.268 19.8048 170.761 20.3315 174.1 18.5306Z" stroke="#CED9ED" stroke-width="0.794583" stroke-miterlimit="10"/>
<mask id="mask0_745_20938" style="mask-type:alpha" maskUnits="userSpaceOnUse" x="1" y="2" width="376" height="322">
<path d="M368.563 96.9428C349.652 53.7028 306.46 -5.96674 190.776 2.97772C75.0949 11.9222 18.2222 89.639 2.74484 187.477C-7.30187 250.986 38.2039 307.063 112.077 320.576C185.95 334.087 286.389 296.161 346.106 230.041C372.096 201.264 387.476 140.183 368.563 96.9428Z" fill="#F7F7FA"/>
</mask>
<g mask="url(#mask0_745_20938)">
<path d="M74.89 50.6099C34.8291 52.0384 11.2166 77.392 4.41797 89.8904L-51.3926 245.887L13.6907 350.67L155.568 405.128L345.666 318.532L401.302 123.815C381.211 122.029 338.247 111.138 327.118 81.856C313.209 45.2534 262.208 18.4712 224.188 26.5058C186.169 34.5406 183.386 72.0356 155.567 72.0356C127.748 72.0356 124.966 48.8243 74.89 50.6099Z" fill="#CED9ED"/>
</g>
<path d="M281.975 272.039C284.063 273.476 286.273 277.639 287.255 282.809C288.728 289.698 287.746 296.017 285.044 296.877C282.344 297.596 279.029 292.714 277.554 285.679C277.187 283.956 276.941 282.377 276.941 280.941C280.011 280.368 283.08 279.937 286.15 279.793C284.554 276.777 283.08 274.48 281.975 272.039Z" fill="#F4B73B"/>
<path d="M218.735 51.5045C219.104 53.5145 219.472 63.9953 215.912 61.1239C213.21 58.9703 211.859 54.0887 211.982 50.3559C211.982 48.9201 212.349 47.4845 213.333 46.7666C214.437 45.9051 216.035 46.3358 217.016 47.3408C217.999 48.4894 218.489 50.0687 218.735 51.5045Z" fill="#B9C8E4"/>
<path d="M279.765 271.607C280.502 271.463 281.238 271.605 281.976 272.18C283.08 274.477 284.555 276.918 286.028 279.646C282.959 279.933 279.888 280.365 276.819 280.794C276.696 275.914 277.677 272.18 279.765 271.607Z" fill="#F4B73B"/>
<path d="M121.727 304.775C121.727 304.631 121.727 304.631 121.727 304.775C124.551 303.196 127.375 301.759 130.076 300.324C130.69 301.617 131.181 303.196 131.55 304.775C131.673 305.206 131.673 305.493 131.795 305.781C128.48 305.206 125.042 304.919 121.727 304.775Z" fill="#F4B73B"/>
<path d="M121.728 304.631C120.991 299.462 121.973 295.299 124.061 294.582C126.025 293.864 128.358 296.304 130.077 300.324C127.253 301.615 124.552 303.052 121.728 304.631Z" fill="#F4B73B"/>
<path d="M295.235 144.398C289.71 178.139 287.991 211.735 287.13 245.764C287.007 251.219 286.885 256.532 286.762 261.986C284.43 261.986 281.974 262.13 279.64 262.274C245.136 264.427 210.877 280.222 185.09 307.214C184.844 307.07 184.475 306.783 184.23 306.639L184.353 306.352C178.581 273.043 167.162 241.17 151.076 212.885C151.199 212.885 151.322 213.028 151.567 213.028C170.6 202.977 189.511 193.357 208.42 184.169C236.909 170.242 265.519 157.033 295.235 144.398Z" fill="#FF2EAA"/>
<path d="M295.236 144.399C265.52 157.034 236.909 170.243 208.422 184.313L208.299 184.026C211.614 163.351 213.701 142.532 214.683 121.57C218.245 122.432 221.806 123.293 225.244 124.298C245.136 129.611 264.046 136.071 283.938 141.527C287.622 142.532 291.43 143.394 295.236 144.399Z" fill="#FF5CBD"/>
<path d="M179.194 329.754C182.265 327.6 185.457 325.446 188.526 323.293C189.14 324.73 189.509 326.165 189.999 327.744C191.964 335.785 191.105 343.108 187.913 344.255C184.719 345.261 180.544 339.661 178.58 331.622C178.335 330.616 178.09 329.612 177.967 328.606C178.457 329.037 178.825 329.324 179.194 329.754Z" fill="#F4B73B"/>
<path d="M377.75 149.135C379.715 151.863 378.977 156.17 377.258 159.185C374.802 163.349 370.873 165.933 366.821 167.369C362.768 168.805 358.349 169.092 354.174 169.235C354.543 169.235 355.893 162.2 356.261 161.482C356.997 159.472 358.103 157.462 359.331 155.74C361.787 152.007 365.225 149.135 369.031 147.556C371.856 146.264 375.785 146.264 377.75 149.135Z" fill="#B9C8E4"/>
<path d="M188.652 323.292C185.459 325.446 182.39 327.6 179.319 329.753C178.952 329.466 178.583 329.036 178.092 328.749C176.987 322.001 177.969 316.257 180.794 315.253C183.248 314.391 186.442 317.694 188.652 323.292Z" fill="#F4B73B"/>
<path d="M151.076 289.556C142.603 286.252 134.007 283.526 125.043 281.514C123.938 277.064 122.833 272.469 121.482 268.162C112.273 236.432 97.2921 207 78.0137 182.448L78.7504 181.586C102.818 192.067 127.008 202.549 151.076 213.029C167.161 241.314 178.582 273.188 184.353 306.498L184.23 306.784C173.546 299.607 162.496 294.006 151.076 289.556Z" fill="#FF5CBD"/>
<path d="M268.402 172.395V252.852M250.015 185.573V257.709M110.02 210.543C116.545 221.64 130.307 249.662 133.154 272.967M133.154 218.866C138.69 231.583 149.763 260.205 149.763 272.967" stroke="#FFCD68"/>
<path d="M151.077 212.884C127.01 202.402 102.819 191.922 78.752 181.441C97.0481 173.4 115.221 165.36 133.518 157.32C144.815 152.295 156.234 147.27 167.532 142.244C183.249 135.353 198.844 128.461 214.684 121.426C213.701 142.388 211.613 163.35 208.298 183.881L208.421 184.169C189.512 193.501 170.724 202.977 151.568 213.028C151.323 213.028 151.2 213.028 151.077 212.884Z" fill="#DA2F88"/>
<path d="M131.797 305.777C133.148 311.809 132.288 317.263 129.832 318.126C127.254 318.988 123.939 314.393 122.219 307.931C121.974 306.783 121.728 305.777 121.605 304.773C125.044 304.917 128.482 305.205 131.797 305.777Z" fill="#F4B73B"/>
<path d="M283.937 141.383C264.044 135.928 245.133 129.61 225.242 124.154C221.803 123.149 218.242 122.288 214.682 121.426C198.964 128.318 183.247 135.21 167.529 142.245C166.056 138.225 165.196 133.918 164.95 129.467C164.581 121.57 166.3 113.673 168.879 106.351C170.967 100.177 173.546 94.1469 176.738 88.5474C180.176 82.2302 184.351 76.3434 189.632 72.3234C195.035 68.3032 201.91 66.5804 207.927 68.8776C213.944 71.1748 218.857 78.21 218.365 85.676C219.838 76.7742 222.909 68.8776 228.066 61.9858C233.101 55.0941 239.608 49.6383 246.608 45.7618C251.273 43.1774 256.309 41.3109 261.465 41.1673C266.624 41.0237 271.903 43.0339 275.587 47.1976C278.289 50.3562 280.008 54.5199 280.743 58.8271C281.481 63.1346 281.358 67.729 280.743 72.0362C284.919 67.0111 290.323 63.5653 296.217 62.273C300.267 61.4116 305.057 61.8423 307.882 65.5753C310.582 69.1646 310.459 74.4769 309.355 78.9279C314.635 71.8927 322.002 66.1497 329.739 63.996C337.352 61.8423 345.579 62.4167 352.578 66.4367C359.576 70.4569 365.226 77.7792 367.191 86.6809C369.4 96.7313 366.699 107.356 362.278 116.258C356.262 128.462 347.053 138.225 336.123 144.111C338.579 143.106 340.667 141.958 343.123 141.814C345.701 141.814 348.28 142.532 350.245 144.542C352.332 146.696 353.315 150.142 353.192 153.444C353.07 156.746 352.086 159.905 350.736 162.776C347.788 169.381 343.123 174.837 337.719 178.426C341.404 176.129 345.211 173.832 349.263 172.97C353.682 171.965 358.595 172.683 362.278 175.698C365.593 178.426 367.558 183.021 368.418 187.615C370.26 197.81 366.822 208.721 360.682 216.473C355.893 222.504 349.509 226.668 342.755 229.252C340.667 229.252 339.071 229.683 337.352 230.975C339.194 230.544 341.036 229.971 342.755 229.252C342.877 229.252 342.877 229.252 343 229.252C344.228 229.252 345.457 229.683 346.315 230.687C347.053 231.55 347.175 232.985 347.053 234.134C346.807 235.282 346.315 236.431 345.701 237.292C343.859 239.876 340.913 241.457 337.965 241.457C321.143 241.026 303.83 240.595 287.498 245.477H287.006C287.866 211.306 289.585 177.852 295.111 144.111C291.427 143.394 287.621 142.532 283.937 141.383Z" fill="#B9C8E4"/>
<path d="M153.473 212.337L295.189 144.527" stroke="#262626"/>
<path d="M153.821 212.584L78.4688 182.359" stroke="black"/>
<path d="M279.637 262.277C279.637 265.868 280.498 268.882 281.971 272.041C283.075 274.338 284.55 276.779 286.023 279.507C282.952 279.793 279.883 280.224 276.813 280.655C260.728 283.383 245.255 289.844 230.275 297.454C215.907 304.92 202.155 313.822 188.525 323.154C185.333 325.308 182.262 327.461 179.193 329.615C178.824 329.328 178.456 328.897 177.966 328.609C164.58 316.836 148.372 308.653 131.672 305.781C128.357 305.206 124.918 304.777 121.603 304.633C121.48 304.633 121.48 304.633 121.357 304.633C121.48 304.633 121.48 304.489 121.603 304.489C124.427 302.909 127.251 301.617 129.953 300.182C136.952 296.592 143.829 293.291 150.951 289.557" stroke="#262626" stroke-width="0.794583" stroke-miterlimit="10" stroke-linejoin="round"/>
<path d="M225.246 124.298C228.807 115.971 230.282 106.926 234.455 99.029C244.647 97.4497 248.208 95.7269 258.154 92.8555" stroke="#F7F7FA" stroke-width="2" stroke-miterlimit="10"/>
<path d="M283.936 141.385C287.496 133.058 292.899 124.3 297.074 116.26C307.266 114.681 311.331 112.782 321.699 107.359" stroke="#F7F7FA" stroke-width="2" stroke-miterlimit="10"/>
<path d="M75.5603 153.588C76.1743 153.014 76.911 152.583 77.7706 152.44C78.8757 152.153 80.1037 152.44 80.9631 153.301C82.3138 154.737 82.4367 157.321 81.8227 159.331C81.2087 161.341 79.9808 163.208 78.2617 163.926C76.5427 164.643 74.3325 164.069 73.4729 162.203C72.9818 161.198 72.8589 160.049 72.9818 158.901C73.1046 156.747 74.0869 154.737 75.5603 153.588Z" fill="#6B7690"/>
<path d="M77.7694 152.439C77.0326 152.583 76.2959 153.014 75.5591 153.588C74.0856 154.737 73.1032 156.747 72.9805 158.9C72.8576 160.049 72.9805 161.198 73.4716 162.202C74.3312 164.069 76.5415 164.643 78.2605 163.925C79.9796 163.208 81.2076 161.341 81.8215 159.331C82.4355 157.321 82.4355 154.737 80.9619 153.301C80.1025 152.439 78.8745 152.152 77.7694 152.439ZM112.274 127.026C119.887 122.863 127.501 118.699 135.114 114.535L135.605 114.679C132.658 128.606 131.921 143.107 133.517 157.321C115.221 165.505 97.0479 173.545 78.7518 181.585L78.0149 182.447C97.4163 207.143 112.274 236.575 121.484 268.162C104.907 275.628 87.9612 286.827 73.7172 299.319C73.5945 299.319 73.5945 299.175 73.4716 299.175C75.3135 251.794 67.5775 204.127 51.2461 160.767C59.1048 156.459 67.0864 152.152 74.9452 147.701C87.3472 140.81 99.7493 133.918 112.274 127.026ZM114.362 139.374C112.029 140.235 110.187 142.82 110.064 145.691C109.941 146.84 110.064 147.988 110.555 148.993C111.415 150.86 113.625 151.434 115.344 150.716C117.063 149.998 118.291 148.132 118.905 146.122C119.519 144.112 119.519 141.527 118.045 140.092C117.186 139.23 115.958 138.943 114.853 139.23C114.607 139.23 114.484 139.374 114.362 139.374Z" fill="#8C93A3"/>
<path d="M114.857 139.229C115.962 138.942 117.19 139.229 118.049 140.09C119.4 141.526 119.523 144.11 118.909 146.12C118.295 148.13 117.067 149.997 115.348 150.715C113.629 151.433 111.418 150.858 110.559 148.992C110.068 147.987 109.945 146.838 110.068 145.69C110.313 142.818 112.032 140.234 114.365 139.372C114.488 139.372 114.611 139.229 114.857 139.229Z" fill="#6B7690"/>
<path d="M11.707 148.704C11.093 146.981 10.7246 145.833 10.7246 144.971C24.6002 144.828 39.8265 150.858 50.3868 161.052C50.6323 160.908 50.8779 160.765 51.1235 160.621C67.5778 203.981 75.1909 251.648 73.349 299.029C59.9646 290.557 46.8258 281.656 32.5818 275.195C33.4414 251.361 31.5994 227.385 27.3017 204.125C24.4774 189.049 20.6708 174.117 15.7591 159.76C14.4084 156.027 13.0577 152.294 11.707 148.704Z" fill="#BCC0CA"/>
<path d="M135.113 114.535C127.5 118.699 119.887 122.862 112.274 127.026C110.923 119.991 109.204 113.099 107.117 106.351C106.503 104.341 105.889 102.475 105.152 100.465C115.589 105.059 124.922 109.079 135.113 114.535Z" fill="#6B7690"/>
<path d="M112.271 127.026C99.7468 133.917 87.3451 140.665 74.8204 147.557C73.347 135.497 72.2418 123.437 72.4874 111.233C75.8028 109.941 78.9953 108.649 82.3106 107.5C83.6613 106.926 85.1348 106.495 86.4855 106.064C89.8008 104.916 93.1162 103.911 96.3087 102.906C98.0278 102.331 103.185 99.747 104.781 100.465C104.781 100.465 104.904 100.465 105.027 100.608C105.764 102.475 106.378 104.485 106.992 106.495C109.202 113.099 110.921 119.991 112.271 127.026Z" fill="#6B7690"/>
<path d="M51.1227 160.621C50.8771 160.764 50.6314 160.908 50.386 161.051C39.7031 150.858 24.6 144.828 10.7246 144.971C10.7246 143.679 11.8297 143.105 14.1628 141.525C19.9339 137.792 25.7051 134.203 31.7218 130.901C35.2827 128.891 38.9664 126.881 42.6502 125.014C50.8771 120.707 59.3496 116.831 67.9449 113.241C69.5412 112.524 71.0146 111.949 72.611 111.375C72.3653 123.435 73.3477 135.639 74.944 147.699C66.9626 152.006 58.9813 156.313 51.1227 160.621Z" fill="#6B7690"/>
<path d="M77.7667 152.44C78.8718 152.153 80.0998 152.44 80.9592 153.301C82.3099 154.737 82.4328 157.321 81.8188 159.331C81.2048 161.341 79.9769 163.208 78.2578 163.926C76.5388 164.643 74.3286 164.069 73.469 162.203C72.9779 161.198 72.855 160.049 72.9779 158.901C73.1007 156.747 74.2057 154.88 75.5564 153.588C76.2933 153.014 76.9071 152.583 77.7667 152.44Z" stroke="#F7F7FA" stroke-width="0.794583" stroke-miterlimit="10"/>
<path d="M114.857 139.229C115.962 138.942 117.19 139.229 118.049 140.09C119.4 141.526 119.523 144.11 118.909 146.12C118.295 148.13 117.067 149.997 115.348 150.715C113.629 151.433 111.418 150.858 110.559 148.992C110.068 147.987 109.945 146.838 110.068 145.69C110.313 142.818 112.032 140.234 114.365 139.372C114.488 139.372 114.611 139.229 114.857 139.229Z" stroke="#F7F7FA" stroke-width="0.794583" stroke-miterlimit="10"/>
<path d="M114.36 139.659C114.36 139.515 114.36 139.515 114.36 139.372C113.746 135.208 113.133 131.188 112.273 127.024C110.922 119.989 109.203 113.098 107.116 106.35C106.502 104.34 105.888 102.473 105.151 100.463C104.169 98.0226 103.187 95.5819 101.836 93.2847C99.5028 89.2647 96.433 85.8188 92.6266 83.9523C88.8201 82.086 84.2769 82.086 80.7159 84.5267C80.4703 84.6702 80.2248 84.9574 79.9792 85.1009C77.5234 87.111 75.9271 89.9826 74.822 93.2847C73.7168 96.874 73.2257 100.607 72.9801 104.34C72.8573 106.637 72.7346 108.934 72.6117 111.231C72.3661 123.292 73.3484 135.495 74.9447 147.555C75.1904 149.565 75.4358 151.575 75.6815 153.442V153.585" stroke="#F7F7FA" stroke-width="0.794583" stroke-miterlimit="10"/>
<path d="M42.6488 125.016C42.0348 114.822 42.7715 104.485 44.8591 94.7218C45.8413 89.9839 47.3148 85.1024 50.0162 81.2259C53.5771 76.0573 59.4711 73.0422 65.2423 73.6166C71.0134 74.0473 76.4162 78.0673 79.2404 83.8101C79.486 84.2408 79.6087 84.6717 79.8543 85.1024C82.6785 91.7067 82.4328 99.6032 82.1874 106.926" stroke="#F7F7FA" stroke-width="0.794583" stroke-miterlimit="10"/>
<path d="M170.968 188.548C170.968 188.548 163.355 194.148 163.724 200.034C164.091 205.919 163.724 206.925 163.724 206.925L205.254 186.392C205.254 186.392 204.122 181.656 196.509 181.369C188.896 180.938 170.968 188.548 170.968 188.548Z" fill="#D3DAEA"/>
<path d="M195.403 145.76C186.686 140.304 175.633 140.161 166.793 145.473C162.495 141.022 159.057 137.289 153.9 134.418C153.532 138.294 153.163 142.171 153.9 145.904C154.637 149.637 156.356 153.37 159.426 155.093C154.637 158.682 153.777 167.44 155.742 173.757C157.707 179.931 162.372 184.525 167.408 187.684C172.81 190.986 178.827 192.996 184.842 192.278C190.859 191.559 196.753 187.827 199.947 181.797C203.139 175.767 203.016 167.296 199.21 161.984C204.121 157.246 206.208 149.349 206.823 141.884C202.647 141.453 197.614 141.884 195.403 145.76Z" fill="#F7F7FA"/>
<path d="M164.951 162.417C163.723 162.56 162.865 164.857 162.986 167.729C163.109 170.6 164.215 172.754 165.442 172.754C166.671 172.61 167.53 170.313 167.407 167.442C167.284 164.57 166.18 162.273 164.951 162.417Z" fill="#2F3D48"/>
<path d="M169.374 166.436C169.128 167.154 169.62 167.872 170.111 168.446C170.478 168.877 171.093 169.164 171.339 169.595C172.566 169.308 173.795 168.877 174.776 168.016C175.022 167.728 175.268 167.441 175.391 167.154C175.514 166.723 175.514 166.149 175.145 166.293C174.162 165.288 172.689 165.288 171.339 165.431C170.97 165.431 170.601 165.431 170.233 165.718C169.866 165.718 169.497 166.006 169.374 166.436Z" fill="#2F3D48"/>
<path d="M181.773 161.413C180.546 161.556 179.686 163.853 179.809 166.725C179.931 169.596 181.036 171.75 182.265 171.75C183.492 171.606 184.352 169.309 184.229 166.438C184.107 163.566 183.001 161.269 181.773 161.413Z" fill="#2F3D48"/>
<path d="M171.334 169.02C171.457 170.599 171.58 172.322 172.07 173.901C172.561 175.48 173.544 176.916 174.772 177.49C176.122 178.065 177.718 177.777 178.578 176.342" stroke="#2F3D48" stroke-width="0.397291" stroke-miterlimit="10"/>
<path d="M171.339 169.02C171.339 170.599 171.339 172.322 171.093 173.901C170.724 175.48 169.989 177.06 168.76 177.777C167.532 178.495 165.813 178.352 164.953 177.06" stroke="#2F3D48" stroke-width="0.397291" stroke-miterlimit="10"/>
<path d="M313.472 159.452C297.167 168.014 290.549 207.811 288.093 247.389C285.611 212.778 278.609 183.207 261.384 191.956C233.378 206.397 245.743 284.385 253.948 322.885C258.357 320.715 262.768 318.546 267.395 316.017C313.794 290.689 331.43 241.356 336.474 192.865C333.217 169.328 326.743 152.304 313.472 159.452Z" fill="#2F3D48"/>
<path d="M206.161 258.639C186.309 270.617 218.228 325.614 223.661 334.784C232.187 332.088 241.015 328.698 250.143 324.612C248.435 318.633 226.863 246.013 206.161 258.639Z" fill="#2F3D48"/>
<path d="M315.482 158.408C299.178 166.969 292.559 206.766 290.103 246.344C287.621 211.733 280.619 182.162 263.395 190.911C235.388 205.352 247.752 283.34 255.958 321.84C260.368 319.67 264.779 317.501 269.405 314.972C315.804 289.644 333.441 240.311 338.484 191.82C335.25 168.437 328.776 151.413 315.482 158.408Z" fill="#8C93A3"/>
<path d="M208.167 257.592C188.315 269.57 220.235 324.569 225.668 333.737C234.193 331.041 243.02 327.651 252.15 323.565C250.442 317.588 228.87 244.966 208.167 257.592Z" fill="#8C93A3"/>
<path d="M215.217 277.504L240.287 327.421" stroke="#BCC0CA" stroke-width="1.54504" stroke-miterlimit="10" stroke-linecap="round"/>
<path d="M264.785 211.984L275.904 308.736" stroke="#BCC0CA" stroke-width="1.54504" stroke-miterlimit="10" stroke-linecap="round"/>
<path d="M321.048 174.824L305.283 280.881" stroke="#BCC0CA" stroke-width="1.54504" stroke-miterlimit="10" stroke-linecap="round"/>
<path d="M348.068 299.002C359.583 286.275 364.177 270.095 358.328 262.859C352.479 255.623 338.403 260.076 326.888 272.8C315.373 285.527 310.779 301.709 316.628 308.945C322.479 316.181 336.553 311.728 348.068 299.002Z" fill="#E5EAF6"/>
<path d="M46.1996 61.2612C53.3384 53.3713 56.1859 43.339 52.5597 38.8533C48.9335 34.3678 40.2068 37.1275 33.0679 45.0172C25.9293 52.9071 23.0817 62.9394 26.7079 67.4249C30.334 71.9107 39.0608 69.151 46.1996 61.2612Z" fill="#E5EAF6"/>
</svg>
