<svg width="66" height="39" viewBox="0 0 66 39" fill="none" xmlns="http://www.w3.org/2000/svg">
<rect width="66" height="39" rx="5" fill="#CCCCCC"/>
<rect y="8" width="66" height="12" fill="#A59B9B"/>
<rect width="28" height="6" transform="translate(8 25)" fill="#666666" fill-opacity="0.2"/>
<path d="M46.18 30H45.5V25.936H44.028V25.392C44.22 25.392 44.4067 25.3787 44.588 25.352C44.7694 25.32 44.932 25.264 45.076 25.184C45.2254 25.104 45.3507 24.9947 45.452 24.856C45.5534 24.7173 45.6227 24.5413 45.66 24.328H46.18V30ZM48.1293 26.336C48.1133 26.048 48.1427 25.7813 48.2173 25.536C48.2973 25.2907 48.4147 25.08 48.5693 24.904C48.724 24.7227 48.9187 24.5813 49.1533 24.48C49.388 24.3787 49.6547 24.328 49.9533 24.328C50.1987 24.328 50.428 24.3653 50.6413 24.44C50.86 24.5093 51.0493 24.6133 51.2093 24.752C51.3693 24.8853 51.4947 25.056 51.5853 25.264C51.6813 25.4667 51.7293 25.6987 51.7293 25.96C51.7293 26.2107 51.6893 26.432 51.6093 26.624C51.5347 26.816 51.4333 26.9893 51.3053 27.144C51.1773 27.2933 51.0307 27.4293 50.8653 27.552C50.7 27.6747 50.5293 27.792 50.3533 27.904C50.1773 28.0107 50.0013 28.1173 49.8253 28.224C49.6493 28.3253 49.4867 28.4347 49.3373 28.552C49.1933 28.6693 49.068 28.7973 48.9613 28.936C48.86 29.0693 48.7933 29.224 48.7613 29.4H51.6733V30H47.9693C47.996 29.664 48.0573 29.3787 48.1533 29.144C48.2493 28.904 48.3667 28.696 48.5053 28.52C48.6493 28.344 48.8093 28.192 48.9853 28.064C49.1667 27.9307 49.3587 27.8027 49.5613 27.68C49.8013 27.5307 50.012 27.3947 50.1933 27.272C50.3747 27.144 50.524 27.016 50.6413 26.888C50.764 26.76 50.8547 26.6213 50.9133 26.472C50.9773 26.3227 51.0093 26.1493 51.0093 25.952C51.0093 25.7973 50.98 25.6587 50.9213 25.536C50.8627 25.408 50.7827 25.2987 50.6813 25.208C50.5853 25.1173 50.4707 25.048 50.3373 25C50.204 24.952 50.0627 24.928 49.9133 24.928C49.716 24.928 49.5453 24.9707 49.4013 25.056C49.2627 25.136 49.148 25.2427 49.0573 25.376C48.9667 25.5093 48.9 25.6613 48.8573 25.832C48.82 25.9973 48.804 26.1653 48.8093 26.336H48.1293ZM53.9667 26.76C54.02 26.7653 54.0707 26.768 54.1187 26.768C54.1667 26.768 54.2147 26.768 54.2627 26.768C54.4067 26.768 54.5427 26.7493 54.6707 26.712C54.804 26.6693 54.9187 26.6107 55.0147 26.536C55.116 26.456 55.196 26.36 55.2547 26.248C55.3133 26.1307 55.3427 25.9947 55.3427 25.84C55.3427 25.5413 55.2467 25.3147 55.0547 25.16C54.8627 25.0053 54.6227 24.928 54.3347 24.928C54.148 24.928 53.988 24.9627 53.8547 25.032C53.7213 25.096 53.6093 25.184 53.5187 25.296C53.4333 25.408 53.3693 25.5387 53.3267 25.688C53.284 25.8373 53.2627 25.9947 53.2627 26.16H52.5827C52.5933 25.888 52.636 25.64 52.7107 25.416C52.7907 25.192 52.9027 25 53.0467 24.84C53.1907 24.68 53.3693 24.5547 53.5827 24.464C53.8013 24.3733 54.052 24.328 54.3347 24.328C54.58 24.328 54.8067 24.36 55.0147 24.424C55.228 24.4827 55.412 24.5733 55.5667 24.696C55.7213 24.8187 55.8413 24.976 55.9267 25.168C56.0173 25.36 56.0627 25.5867 56.0627 25.848C56.0627 26.0987 55.9853 26.3253 55.8307 26.528C55.6813 26.7253 55.4973 26.8747 55.2787 26.976V26.992C55.6253 27.0667 55.8813 27.2293 56.0467 27.48C56.2173 27.7307 56.3027 28.0267 56.3027 28.368C56.3027 28.6507 56.2493 28.9013 56.1427 29.12C56.0413 29.3333 55.9027 29.512 55.7267 29.656C55.5507 29.8 55.3427 29.9093 55.1027 29.984C54.868 30.0587 54.6173 30.096 54.3507 30.096C54.0627 30.096 53.8013 30.056 53.5667 29.976C53.332 29.8907 53.132 29.7707 52.9667 29.616C52.8013 29.456 52.6733 29.2613 52.5827 29.032C52.4973 28.8027 52.4573 28.5413 52.4627 28.248H53.1427C53.1533 28.616 53.26 28.9173 53.4627 29.152C53.6653 29.3813 53.9613 29.496 54.3507 29.496C54.516 29.496 54.6733 29.472 54.8227 29.424C54.972 29.3707 55.1027 29.2987 55.2147 29.208C55.3267 29.112 55.4147 28.9973 55.4787 28.864C55.548 28.7253 55.5827 28.5707 55.5827 28.4C55.5827 28.224 55.5507 28.0693 55.4867 27.936C55.4227 27.7973 55.3373 27.6827 55.2307 27.592C55.124 27.496 54.996 27.4267 54.8467 27.384C54.6973 27.336 54.54 27.312 54.3747 27.312C54.2307 27.312 54.0947 27.32 53.9667 27.336V26.76Z" fill="#7A7A7A"/>
</svg>
