<svg width="46" height="46" viewBox="0 0 46 46" fill="none" xmlns="http://www.w3.org/2000/svg">
<path d="M4.3125 40.25H41.6875" stroke="#358CCB" stroke-width="3" stroke-linecap="round" stroke-linejoin="round"/>
<path d="M10.0625 40.25V7.1875C10.0625 6.80625 10.214 6.44062 10.4835 6.17103C10.7531 5.90145 11.1188 5.75 11.5 5.75H34.5C34.8812 5.75 35.2469 5.90145 35.5165 6.17103C35.7861 6.44062 35.9375 6.80625 35.9375 7.1875V40.25" stroke="#358CCB" stroke-width="3" stroke-linecap="round" stroke-linejoin="round"/>
<path d="M28.0312 25.1562C29.2221 25.1562 30.1875 24.1909 30.1875 23C30.1875 21.8091 29.2221 20.8438 28.0312 20.8438C26.8404 20.8438 25.875 21.8091 25.875 23C25.875 24.1909 26.8404 25.1562 28.0312 25.1562Z" fill="#358CCB"/>
</svg>
