<svg xmlns="http://www.w3.org/2000/svg" viewBox="0 0 118.86 135.98"><defs><style>.cls-1{fill:#eb008c;}</style></defs><g id="Layer_2" data-name="Layer 2"><g id="Layer_1-2" data-name="Layer 1"><path class="cls-1" d="M98.78,61.79c5.66-2.27,11.66-2.29,17.62-2.58a4.94,4.94,0,0,0,2.46-.51c-2.41-1-4.9-1.71-7.19-2.88a76.54,76.54,0,0,1-10.57-6c-4.48-3.25-4.64-7.61,0-10.61,4.86-3.19,10.37-5.4,15.6-8A6,6,0,0,0,118.76,30c-3-.16-6.05-.08-9-.53a60.81,60.81,0,0,1-11.07-2.49c-4.19-1.47-5.43-4.75-3.09-8.53a54.79,54.79,0,0,1,7.59-9.11c2.32-2.4,5.08-4.38,8-6.85-4.66,1.2-8.78,2.36-13,3.29a29.82,29.82,0,0,1-6.65.76C87,6.46,85.51,5.08,84.5,0H0V99.11c3.23-.08,5.26,1,5.43,4.1A64.06,64.06,0,0,1,4.76,116c-.5,3.56-1.73,7-2.29,10.72,1.39-1.87,2.66-3.85,4.21-5.59a92.32,92.32,0,0,1,9-9.53c4.39-3.75,7.92-2.65,9.82,2.83,2.44,7,2.44,14.3,2.38,21.59h.5c2.16-7,4.17-14.09,8.92-20.47,4.87,6.26,6.8,13.43,9,20.47h.49c.51-6.35.49-12.8,1.64-19,1.56-8.45,6.21-9.87,12.37-3.93,3.73,3.6,6.75,7.94,10.08,12,.46.55.9,1.13,1.76,2.19-1.2-4.94-2.51-9.2-3.18-13.55a39.79,39.79,0,0,1-.25-10.34c.37-3.39,3.06-4.84,6.41-4,6.49,1.54,11.57,5.62,16.82,9.38a4.8,4.8,0,0,0,2,1c-.28-.52-.56-1-.85-1.57-2.61-4.71-5.24-9.39-7.79-14.12a13.89,13.89,0,0,1-1.12-3.29c-1.23-5,1-7.9,6.14-8.12,5.75-.24,11.12,1.5,16.49,3.23a6.38,6.38,0,0,0,3,.44c-2.43-2.1-5-4-7.27-6.35a65.48,65.48,0,0,1-7.5-8.89C93,67,94.39,63.56,98.78,61.79Z"/></g></g></svg>